<svg xmlns="http://www.w3.org/2000/svg" width="18.591" height="21.976" viewBox="0 0 18.591 21.976">
  <path id="Path_1" data-name="Path 1" d="M51.569.726a1.638,1.638,0,0,0-.763-.6A1.608,1.608,0,0,0,50.168,0H34.946a1.607,1.607,0,0,0-.639.131,1.636,1.636,0,0,0-.763.6,1.541,1.541,0,0,0-.283.9V20.349a1.542,1.542,0,0,0,.283.9,1.636,1.636,0,0,0,.763.6,1.606,1.606,0,0,0,.639.131,1.732,1.732,0,0,0,1.206-.479l6.405-6.159L48.962,21.5a1.729,1.729,0,0,0,1.205.464,1.69,1.69,0,0,0,1.4-.712,1.54,1.54,0,0,0,.283-.9V1.627A1.542,1.542,0,0,0,51.569.726ZM49.993,19.9,43.849,14l-1.293-1.234L41.264,14,35.12,19.9V1.859H49.993V19.9Z" transform="translate(-33.261)"/>
</svg>
