<?xml version="1.0" standalone="no"?>
<!DOCTYPE svg PUBLIC "-//W3C//DTD SVG 20010904//EN"
 "http://www.w3.org/TR/2001/REC-SVG-20010904/DTD/svg10.dtd">
<svg version="1.0" xmlns="http://www.w3.org/2000/svg"
 width="400.000000pt" height="400.000000pt" viewBox="0 0 400.000000 400.000000"
 preserveAspectRatio="xMidYMid meet">
<metadata>
Created by potrace 1.11, written by Peter Selinger 2001-2013
</metadata>
<g transform="translate(0.000000,400.000000) scale(0.100000,-0.100000)"
fill="#000000" stroke="none">
<path d="M2175 3910 c-22 -11 -47 -25 -56 -32 -9 -7 -104 -146 -211 -308 -107
-162 -314 -475 -459 -695 l-265 -400 -52 0 c-42 0 -56 -5 -78 -26 -34 -35 -42
-94 -16 -134 19 -30 19 -30 -4 -76 -33 -67 -48 -166 -36 -237 6 -32 36 -130
67 -218 61 -170 120 -333 192 -534 24 -69 49 -138 55 -155 5 -16 13 -39 18
-50 4 -11 25 -67 45 -125 21 -58 57 -159 81 -225 105 -293 134 -374 156 -439
28 -85 81 -148 143 -172 86 -33 192 -2 247 71 70 92 1063 1596 1073 1624 27
77 27 162 1 231 -4 10 6 22 31 35 21 11 46 36 57 57 18 34 18 39 3 70 -25 52
-51 70 -109 76 -29 2 -58 9 -64 13 -6 5 -25 46 -42 92 -16 45 -59 163 -95 262
-36 99 -100 272 -141 385 -41 113 -101 279 -134 370 -185 510 -181 501 -254
538 -54 26 -99 27 -153 2z m135 -57 c39 -23 62 -68 130 -255 77 -215 226 -624
375 -1027 47 -128 84 -235 82 -237 -2 -2 -18 1 -36 7 -42 15 -148 6 -188 -15
-50 -25 -104 -20 -160 14 -60 38 -154 49 -223 28 -63 -20 -282 2 -320 32 -82
65 -195 87 -280 55 -77 -30 -122 -30 -167 -2 -70 44 -168 60 -229 37 -50 -19
-86 -78 399 658 79 119 214 324 300 454 102 155 165 242 184 252 37 20 98 20
133 -1z m-865 -1423 c21 0 52 -13 86 -36 l54 -36 43 24 c35 19 57 23 125 23
72 -1 89 -4 129 -28 62 -36 89 -82 95 -161 14 -167 -80 -327 -235 -403 -52
-26 -66 -28 -172 -28 -107 0 -119 2 -174 30 -183 90 -283 327 -211 499 20 48
87 104 132 111 21 4 45 8 53 9 8 2 21 2 28 0 8 -2 29 -4 47 -4z m-290 -20 c3
-5 -4 -24 -17 -42 -13 -18 -24 -35 -25 -37 -1 -2 -9 2 -18 9 -18 15 -20 51 -3
68 14 14 54 16 63 2z m1006 -119 c10 -9 -39 -81 -55 -81 -40 0 -64 19 -68 55
-2 19 -2 37 0 39 6 6 116 -6 123 -13z m348 0 c20 -11 43 -27 50 -35 18 -21 33
-20 74 4 103 61 282 19 331 -78 22 -43 28 -116 16 -183 -23 -128 -102 -235
-222 -300 -61 -33 -66 -34 -178 -34 -105 0 -120 2 -173 28 -82 38 -157 112
-198 194 -31 64 -33 74 -34 173 0 128 19 174 92 221 42 26 56 29 125 29 58 0
89 -5 117 -19z m-1407 -154 c7 -108 49 -197 133 -283 263 -267 708 -140 800
229 15 59 20 67 41 67 23 0 24 -4 24 -58 0 -145 48 -266 141 -360 228 -230
610 -168 763 124 l37 69 -5 -58 c-3 -39 -14 -75 -35 -111 -37 -67 -1011 -1527
-1043 -1564 -39 -46 -73 -62 -130 -62 -45 0 -59 5 -92 32 -43 35 -50 49 -111
223 -24 66 -68 192 -99 280 -32 88 -68 189 -81 225 -13 36 -76 211 -140 390
-64 179 -137 380 -161 448 -81 225 -94 269 -94 327 0 59 25 165 39 165 5 0 11
-37 13 -83z m1982 43 c40 -15 33 -80 -9 -80 -17 0 -24 7 -29 31 -12 62 -9 67
38 49z"/>
<path d="M1334 2341 c-47 -29 -71 -66 -79 -122 -4 -28 -5 -52 -2 -55 5 -5 137
179 137 190 0 12 -26 6 -56 -13z"/>
<path d="M1693 2333 c-25 -5 -67 -42 -100 -88 l-22 -30 -10 28 c-6 15 -13 27
-15 27 -7 0 -216 -298 -216 -309 0 -17 94 -78 148 -96 145 -47 313 30 380 174
81 176 -2 326 -165 294z"/>
<path d="M2329 2215 c-20 -13 -43 -38 -51 -57 -18 -40 -30 -108 -19 -108 10 0
131 167 131 181 0 15 -23 9 -61 -16z"/>
<path d="M2706 2213 c-19 -3 -48 -24 -82 -59 -51 -53 -52 -54 -58 -29 -4 14
-12 25 -19 25 -6 0 -35 -35 -64 -78 -28 -42 -75 -110 -104 -151 l-53 -74 43
-38 c128 -114 322 -101 443 28 64 68 100 195 76 272 -23 75 -97 117 -182 104z"/>
<path d="M1769 1415 c-34 -18 -39 -38 -27 -109 11 -70 45 -140 90 -183 33 -33
110 -63 159 -63 46 0 120 32 155 67 37 37 87 129 99 180 17 79 -16 98 -185
107 -69 4 -156 9 -195 11 -51 4 -77 1 -96 -10z"/>
</g>
</svg>
